<svg width="15" height="17" viewBox="0 0 15 17" fill="none" xmlns="http://www.w3.org/2000/svg">
<path d="M1.816 16.192C1.432 16.192 1.112 16.0853 0.856 15.872C0.621333 15.6373 0.493333 15.3493 0.472 15.008C0.472 14.6667 0.621333 14.2933 0.92 13.888L6.328 7.136V8.736L1.272 2.432C0.930667 2.048 0.770667 1.68533 0.792 1.344C0.813333 0.981332 0.952 0.693333 1.208 0.48C1.464 0.266666 1.77333 0.159999 2.136 0.159999C2.54133 0.159999 2.872 0.234666 3.128 0.383999C3.40533 0.511999 3.66133 0.735999 3.896 1.056L8.152 6.464H7L11.288 1.056C11.5227 0.735999 11.768 0.511999 12.024 0.383999C12.3013 0.234666 12.632 0.159999 13.016 0.159999C13.4 0.159999 13.7093 0.277332 13.944 0.511999C14.2 0.725332 14.328 1.01333 14.328 1.376C14.3493 1.71733 14.2 2.08 13.88 2.464L8.824 8.672V7.232L14.232 13.888C14.552 14.272 14.7013 14.6453 14.68 15.008C14.68 15.3493 14.552 15.6373 14.296 15.872C14.04 16.0853 13.72 16.192 13.336 16.192C12.952 16.192 12.6213 16.1173 12.344 15.968C12.088 15.8187 11.832 15.5947 11.576 15.296L7 9.536H8.088L3.544 15.296C3.30933 15.5733 3.05333 15.7973 2.776 15.968C2.52 16.1173 2.2 16.192 1.816 16.192Z" fill="#FF0000"/>
</svg>
