<svg width="23" height="24" viewBox="0 0 23 24" fill="none" xmlns="http://www.w3.org/2000/svg">
<path d="M17.429 2.29059L19.9746 4.41342C20.1499 4.55962 20.3628 4.63096 20.5745 4.63096C20.8431 4.63096 21.1096 4.51621 21.295 4.29389C21.6266 3.89625 21.5731 3.30506 21.1754 2.97346L18.6298 0.85059C18.2323 0.518996 17.641 0.57248 17.3094 0.970168C16.9778 1.36781 17.0313 1.95895 17.429 2.29059Z" fill="white"/>
<path d="M1.54943 4.63113C1.76111 4.63113 1.97407 4.55979 2.14933 4.41358L4.69488 2.2908C5.09252 1.95921 5.1461 1.36802 4.81451 0.970381C4.48296 0.572788 3.89172 0.51921 3.49408 0.850803L0.94849 2.97363C0.550849 3.30522 0.497271 3.89641 0.828865 4.29405C1.01435 4.51638 1.28088 4.63113 1.54943 4.63113Z" fill="white"/>
<path d="M18.8849 5.11514C17.018 3.2483 14.6013 2.13159 12 1.9147V0.9375C12 0.419719 11.5803 0 11.0625 0C10.5447 0 10.125 0.419719 10.125 0.9375V1.9147C7.52372 2.13159 5.10698 3.24825 3.24014 5.11509C1.15069 7.20455 0 9.98259 0 12.9375C0 15.8924 1.15069 18.6705 3.24014 20.7599C5.32955 22.8493 8.10759 24 11.0625 24C13.4416 24 15.7087 23.2561 17.6186 21.8487C18.0355 21.5416 18.1244 20.9547 17.8172 20.5379C17.5101 20.121 16.9231 20.0321 16.5063 20.3392C14.9209 21.5075 13.0385 22.125 11.0625 22.125C5.99648 22.125 1.875 18.0035 1.875 12.9375C1.875 7.87148 5.99648 3.75 11.0625 3.75C16.1285 3.75 20.25 7.87148 20.25 12.9375C20.25 14.4848 19.8584 16.0143 19.1175 17.3604C18.8678 17.814 19.0331 18.3841 19.4867 18.6338C19.9402 18.8834 20.5104 18.7182 20.7601 18.2645C21.653 16.6421 22.125 14.8001 22.125 12.9375C22.125 9.98259 20.9743 7.20455 18.8849 5.11514Z" fill="white"/>
<path d="M15.6297 7.29396C15.2273 6.96832 14.637 7.03043 14.3112 7.43295L11.3552 11.0857C11.2598 11.0706 11.1621 11.0627 11.0625 11.0627C10.0286 11.0627 9.1875 11.9038 9.1875 12.9377C9.1875 13.9715 10.0286 14.8127 11.0625 14.8127C12.0964 14.8127 12.9375 13.9715 12.9375 12.9377C12.9375 12.7009 12.8929 12.4744 12.8124 12.2656L15.7687 8.61246C16.0944 8.20995 16.0322 7.6196 15.6297 7.29396Z" fill="white"/>
</svg>
