<svg width="473" height="479" viewBox="0 0 473 479" fill="none" xmlns="http://www.w3.org/2000/svg">
<path d="M269.3 86.2C263 94.2 260.8 137.2 273.4 170.9L336.1 127.3C325.3 111.3 275.6 78.2 269.3 86.2Z" fill="#AF9797"/>
<path d="M275.3 93.5999C270.1 100.3 269.1 137.7 280.7 167.6L333.6 131.9C323.9 117.6 280.5 86.8999 275.3 93.5999Z" fill="#665252"/>
<path d="M278 98.9999C273.2 105.3 272.3 139.9 283 167.6L332.1 134.5C323.1 121.2 282.8 92.6999 278 98.9999Z" fill="#E06161"/>
<path d="M303.4 151.7C303.4 152.4 303.4 153.1 303.4 153.8L332 134.5C324.1 122.8 291.8 99.2 281 98.2C293.7 101.4 303.4 124.1 303.4 151.7Z" fill="#BA4F4F"/>
<path d="M421.2 83C415.2 81.7 396 95.3 389.8 121.6L439.7 157C442.5 132.9 425.2 83.8 421.2 83Z" fill="#AF9797"/>
<path d="M419.4 89.0999C414.7 88.4999 400.4 102.6 396.8 127L437.1 154.4C438.1 132.4 422.6 89.4999 419.4 89.0999Z" fill="#665252"/>
<path d="M418.3 93.0999C414.1 92.7999 401.4 106.8 398.2 129.7L434.2 152.8C435.1 132.2 421.1 93.2999 418.3 93.0999Z" fill="#E06161"/>
<path d="M418.7 93.3C420 99.1 420.7 105.6 420.7 112.4C420.7 123.2 418.9 133.1 415.9 141L434.2 152.7C435.1 133 422.1 96.2 418.7 93.3Z" fill="#BA4F4F"/>
<path d="M207.7 478.8H147.5C147.5 478.8 107.9 411 122.3 366C136.7 321 199.3 363 199.3 363L165.8 404.2C165.8 404.2 175.5 450.4 180.8 455.8C180.7 455.6 204.6 453.6 207.7 478.8Z" fill="#5B4949"/>
<path d="M327.6 478.5H278.8C278.8 478.5 255.4 426.7 273.2 372.3C291 317.9 322 322.5 332.6 332.7C343.3 342.9 300.6 424.2 305.2 456.2C305.2 456.1 331.1 455.1 327.6 478.5Z" fill="#5B4949"/>
<path d="M313.2 410.2C294.8 410.2 279.1 430.9 272.6 460.3C275.7 471.6 278.8 478.5 278.8 478.5H327.6C331.2 455.1 305.2 456.1 305.2 456.1C303.6 445.1 307.7 428.1 313.2 410.2C313.2 410.2 313.3 410.2 313.2 410.2Z" fill="#665252"/>
<path d="M37 35.2C31.7 77.9 66.6999 75.5999 66.6999 75.5999C65.8999 114.5 20.1999 130.5 4.19992 180.8C-11.8001 231.1 27.1 265.4 75.8 241.8L92.6001 218.9C29.3001 234.1 37.0999 189.4 48.3999 168.6C57.4999 151.8 128.4 126.7 133 49.7C137.1 -20.3 42.3 -7.50003 37 35.2Z" fill="#665252"/>
<path d="M37 35.2C31.7 77.9 66.7 75.6 66.7 75.6C66.1 108 34.2999 124.5 14.3999 158.1C34.6999 161.5 56.5 156.8 76.2 145.2C99.8999 127 130.1 99 133 49.6C137.1 -20.3 42.3 -7.5 37 35.2Z" fill="#7C6666"/>
<path d="M378.4 251.9L365.5 255.5C344.2 230.5 287.7 202.8 287.7 202.8C287.7 202.8 241.2 229.5 214.5 224.1C187.8 218.8 117.7 195.1 84.2 218.8C50.7 242.4 44.6001 282.1 44.6001 282.1L97.8999 372.8C156.6 365.9 220.6 364.4 241.2 380.4C261.8 396.4 334.9 356.8 334.9 356.8V363.7C334.9 363.7 356.2 350.7 359.3 335.5L361.6 346.9C361.6 346.9 380.7 329.4 377.6 298.1L381.4 304.2C381.4 304.2 383.1 297.8 379.9 285.5L386 286.9C386 287 386.5 270.2 378.4 251.9Z" fill="#725E5E"/>
<path d="M378.4 251.9L365.5 255.5C344.2 230.5 287.7 202.8 287.7 202.8C287.7 202.8 278.5 208.1 266 213.5C258.7 216.6 292 263.6 292 290.3C292 325.3 256 355.2 215.9 371C226.9 373 235.7 376 241.3 380.4C261.9 396.4 335 356.8 335 356.8V363.7C335 363.7 356.3 350.7 359.4 335.5L361.7 346.9C361.7 346.9 380.8 329.4 377.7 298.1L381.5 304.2C381.5 304.2 383.2 297.8 380 285.5L386.1 286.9C386 287 386.5 270.2 378.4 251.9Z" fill="#665252"/>
<path d="M305.8 314.8L315.4 314.4C315.4 314.4 310.2 328.6 312.2 353.3L322.3 349.9C322.3 349.9 322.9 355.6 324 362.4C330.6 359.2 334.8 356.9 334.8 356.9V363.8C334.8 363.8 356.1 350.8 359.2 335.6L361.5 347C361.5 347 380.6 329.5 377.5 298.2L381.3 304.3C381.3 304.3 383 297.9 379.8 285.6L385.9 287C385.9 287 386.1 278.7 383.5 267.5L324.8 264.3C308.3 289.9 305.8 314.8 305.8 314.8Z" fill="#756060"/>
<path d="M314.6 283.6C307.2 301.1 305.8 314.8 305.8 314.8L315.4 314.4C315.4 314.4 310.2 328.6 312.2 353.3L322.3 349.9C322.3 349.9 322.9 355.6 324 362.4C330.6 359.2 334.8 356.9 334.8 356.9V363.8C334.8 363.8 356.1 350.8 359.2 335.6L361.5 347C361.5 347 380.6 329.5 377.5 298.2L381.3 304.3C381.3 304.3 382.5 299.6 380.9 290.7C367.1 285.6 350.5 282.6 332.7 282.6C326.6 282.5 320.5 282.9 314.6 283.6Z" fill="#7F6B6B"/>
<path d="M214.5 224.2C187.8 218.9 117.7 195.2 84.2 218.9C75.8 224.8 69.1 231.7 63.8 238.8C68.6 264.4 99.2999 286.4 140.2 291C188.9 296.5 233.7 275.4 240.3 243.8C241.8 236.6 241.2 229.6 238.8 222.8C230.1 224.8 221.6 225.6 214.5 224.2Z" fill="#7C6666"/>
<path d="M243.3 351.1C175 351.1 116.8 315.9 94.2 266.4C87.7 252.2 44.5 282.1 44.5 282.1L97.8 372.8C156.5 365.9 220 367 240.6 383C256 395 301.3 374.3 323 363.2C330.2 359.5 331.9 333.3 296.7 343.6C280.1 348.4 262.1 351.1 243.3 351.1Z" fill="#665252"/>
<path d="M463.7 214.4L472.3 211.8L455.2 193L462.9 189.6L446.6 175L450 171.6L439.7 155.3L385 122.7C374.8 117.5 366.7 115.4 353.2 114.2L354.9 122.8L334.4 125.2C334.4 125.2 290.7 156.9 277 165.4C263.3 174 253.9 197.3 253.9 197.3L262.5 195.6C252.2 205.9 247.9 235.8 247.9 235.8L262.5 228.9L260.8 243.5L275.4 242.6L272 252.9C272 252.9 358.1 277.1 383.3 273.5C427.8 267.1 456.6 242.6 456.6 242.6L447.4 241.7C453.2 237.3 458.9 232.8 464.4 228.3L458.7 224.7L468.1 221.3L463.7 214.4Z" fill="#8C7474"/>
<path d="M455.1 192.9L462.8 189.5L446.5 174.9L449.9 171.5L439.6 155.2L390.2 119.3C387 118 383.7 116.9 380.4 116.1C380.2 116.5 380 116.9 379.8 117.4C370.1 140.4 403.2 186.5 438.1 203.5C448.4 208.5 459 211.5 469 212.6L472.2 211.7L455.1 192.9Z" fill="#7C6666"/>
<path d="M352.8 123L336.7 116.6L338.6 122.7L334.5 125.1C334.5 125.1 290.8 156.8 277 165.3C263.3 173.9 253.9 197.2 253.9 197.2L262.5 195.5C252.2 205.8 247.9 235.7 247.9 235.7L262.5 228.8L260.8 243.4L275.4 242.5L272 252.8C272 252.8 272.3 252.9 272.9 253.1C278.4 251.4 284 249.5 289.6 247.4C354.2 222.6 390.3 185.7 377.7 152.9C374.3 144.3 360.8 127.9 352.8 123Z" fill="#7C6666"/>
<path d="M403.4 212.1C393.3 224.1 383.8 230.3 377.6 230.3C371.4 230.3 355 218.4 355.5 213.6C356 208.8 389 198.6 396.1 200.1C403.2 201.6 403.4 212.1 403.4 212.1Z" fill="#EAD5BE"/>
<path d="M403.3 210.7C402.5 214.5 416.7 228.2 422 228.1C429.3 227.8 443.3 217.3 443.5 212.5C443.7 207.7 419.6 198.3 413.2 199.9C406.7 201.6 403.3 210.7 403.3 210.7Z" fill="#EAD5BE"/>
<path d="M401.6 214.6C396.9 213.6 389.1 201.1 390.6 199.9C392.1 198.8 401.7 196.5 404.7 196.5C407.7 196.5 417 197.6 417.5 199.9C418.1 202.2 405.1 215.3 401.6 214.6Z" fill="#D85D5D"/>
<path d="M334.8 189.6C334.6 189.6 334.4 189.6 334.3 189.5C333.5 189.2 333.1 188.3 333.4 187.6C336.9 178.3 344.8 172.6 348.9 172.6C354.3 172.6 362.2 182.3 364.4 186.1C364.8 186.8 364.6 187.7 363.9 188.1C363.2 188.5 362.3 188.3 361.9 187.6C359.5 183.5 352.4 175.6 348.9 175.6C346.6 175.6 339.4 180.1 336.2 188.7C336 189.3 335.4 189.6 334.8 189.6Z" fill="#5E4B4B"/>
<path d="M418.4 185.6C418.2 185.6 417.9 185.5 417.7 185.4C416.8 185 416.3 184 416.6 183.3C419.6 176.1 425.4 171.5 428.8 171.8C433.8 172.3 438.5 182.7 439.3 184.7C439.6 185.5 439.1 186.3 438.2 186.4C437.3 186.5 436.3 185.9 436 185.1C434.5 181.1 430.5 175.1 429.1 174.8C427.9 174.7 422.9 177.6 419.9 184.8C419.7 185.4 419.1 185.7 418.4 185.6Z" fill="#5E4B4B"/>
<path d="M258 366.7C227.5 330.6 240.7 283.9 240.7 283.9L279.8 344.4L258 366.7Z" fill="#665252"/>
<path d="M237.7 303.8C258.8 361.1 297.8 380.3 297.8 380.3L296.6 384.4L304.3 384.9L302.2 390.5C302.2 390.5 352 386.9 366.2 374.6C380.4 362.3 387.8 345.9 387.8 345.9C387.8 345.9 325 345.4 321.8 343.9C318.6 342.4 292 302.4 290.4 282.4C288.8 262.5 224.7 268.5 237.7 303.8Z" fill="#725E5E"/>
<path d="M319.1 341.1C297.6 345.2 281.3 353.6 275.8 363.7C288.1 375.6 297.8 380.4 297.8 380.4L296.6 384.5L304.3 385L302.2 390.6C302.2 390.6 352 387 366.2 374.7C380.4 362.4 387.8 346 387.8 346C387.8 346 325 345.5 321.8 344C321.3 343.8 320.4 342.7 319.1 341.1Z" fill="#8C7474"/>
<path d="M361.4 362.2C356.4 377.7 354 404.8 381.5 400.8C398.9 398.2 401.8 383.5 402.3 369.8C402.8 356.1 397.2 346.4 387.1 346.4C376.9 346.4 365.6 349.3 361.4 362.2Z" fill="#CCB2A2"/>
<path d="M160 354.2C169.9 299.7 135.2 269.2 135.2 269.2L126.4 348.8L160 354.2Z" fill="#665252"/>
<path d="M79.6001 478.8H19.3999C19.3999 478.8 9.49988 441.3 16.3999 419.1C23.2999 396.9 37 377.7 37 377.7C37 377.7 18.2 262.8 70 231.4C121.8 200 166.6 307 143.3 351.9C121.6 393.8 51.5 410.6 53 455.1C53 455 72.8001 447.4 79.6001 478.8Z" fill="#725E5E"/>
<path d="M70.0001 231.4C30.0001 255.6 32.1002 329.5 35.1002 362C40.3002 369.7 47 376 55.2 380.1C81.7 393.5 116.3 381.6 142.6 353.2C142.8 352.8 143.1 352.3 143.3 351.9C166.6 306.9 121.8 200 70.0001 231.4Z" fill="#7C6666"/>
<path d="M19.3999 478.8H79.6001C72.7001 447.4 52.8999 455.1 52.8999 455.1C37.2999 456.7 23.9001 462.5 17.1001 468.4C18.3001 474.6 19.3999 478.8 19.3999 478.8Z" fill="#CCB2A2"/>
<path d="M403.9 211.7C400.5 210.8 395 200.5 396 199.6C397 198.7 403.9 197.1 406.1 197.1C408.3 197.2 414.9 198.3 415.3 200.1C415.6 202 406.3 212.4 403.9 211.7Z" fill="#EF7878"/>
<path d="M401 210.9C403.4 205.3 403.8 204.2 402.4 202.9C401 201.6 393.1 201.1 393.1 201.1L401 210.9Z" fill="#D85D5D"/>
<path d="M407.6 210.5C408.5 205.5 408 204 410 202.8C412 201.5 415.3 201.7 415.3 201.7C413.6 204.5 411 207.5 407.6 210.5Z" fill="#D85D5D"/>
<path d="M392.7 227.6C397.5 232.6 406.8 229.9 410.6 226.3C410.6 226.3 406.8 234.3 400.7 233.5C394.6 232.8 392.7 227.6 392.7 227.6Z" fill="#5E4B4B"/>
<path d="M237.9 248.1C236.6 271 215.5 292.3 215.5 292.3L214 271.7L237.9 248.1Z" fill="#7C6666"/>
<path d="M227.3 254.1C223.5 276.7 200.2 295.6 200.2 295.6L200.9 275L227.3 254.1Z" fill="#7C6666"/>
<path d="M214.9 266.2C205 286.9 177.4 298.6 177.4 298.6L183.8 279L214.9 266.2Z" fill="#7C6666"/>
<path d="M470.2 212.4L472.3 211.8L471.7 211.1L469.8 211.7L470.2 212.4Z" fill="#665252"/>
<path d="M465.1 222.3L468 221.2L467.8 220.8L464.7 222L465.1 222.3Z" fill="#665252"/>
<path d="M373.3 273.7C337.8 268.9 278 250.2 278 250.2L281.4 239.9L266.8 240.8L268.2 223.4L253.7 228C253.7 228 258.2 203.1 268.5 192.8L260.2 190.6C260.2 190.6 263.2 182.2 268.1 173.2C259.3 183.5 253.8 197.2 253.8 197.2L262.4 195.5C252.1 205.8 247.8 235.7 247.8 235.7L262.4 228.8L260.7 243.4L275.3 242.5L270.5 253.4C270.5 253.5 340.7 272.2 373.3 273.7Z" fill="#665252"/>
<path d="M378.2 127.8C375 114.5 369.6 107.6 369.6 107.6C369.6 107.6 387.5 114.2 392.9 121.3C391.6 123.8 378.2 127.8 378.2 127.8Z" fill="#7C6666"/>
<path d="M305.2 456.1C305.2 456 305.2 455.9 305.2 455.8C291 458.2 280 464.4 276.4 472.3C277.8 476.3 278.8 478.5 278.8 478.5H327.6C331.1 455.1 305.2 456.1 305.2 456.1Z" fill="#BA9B8A"/>
<path d="M145.3 474.9C146.6 477.4 147.4 478.7 147.4 478.7H207.6C205 457.1 186.9 455.5 182 455.5C164 457.5 149.6 465.1 145.3 474.9Z" fill="#BA9B8A"/>
</svg>
