<svg width="684" height="376" viewBox="0 0 684 376" fill="none" xmlns="http://www.w3.org/2000/svg">
<path d="M577.9 339.7C575 339.7 571.9 339.3 568.9 338.3C565.9 337.3 562.9 335.5 560.8 332.9C558.7 330.3 557.7 327.2 557.1 324.4C556.5 321.6 556.3 318.8 555.7 316.4C555.4 315.2 555 314.2 554.4 313.7C554.1 313.4 553.8 313.2 553.4 313.1C552.9 313 552.3 312.9 551.7 312.8C549.3 312.5 546.8 312.8 544.3 313.5C539.3 314.9 534.3 317.3 529.2 319.2C524.1 321.2 518.6 322.8 512.9 322.8C510.1 322.9 507.3 322.3 504.6 321.4C502 320.5 499.3 319.1 497.4 316.8C496.5 315.6 495.8 314.2 495.7 312.7C495.5 311.2 495.7 309.7 496.1 308.4C496.9 305.7 498.4 303.3 500.1 301.1C501.8 298.9 503.7 296.9 505.8 295.1C506.8 294.2 507.9 293.3 508.9 292.4C510 291.6 511.1 290.7 512 289.6L512.9 291C511.6 291.4 510.5 292.2 509.4 293.1C508.4 294 507.3 294.9 506.4 295.8C504.4 297.7 502.6 299.7 501 301.8C499.4 303.9 498 306.3 497.3 308.8C496.6 311.3 496.9 314 498.6 315.9C500.2 317.8 502.6 319.1 505.1 319.8C507.6 320.5 510.2 321.1 512.9 320.9C518.2 320.7 523.3 319 528.2 316.9C533.2 314.8 538 312.2 543.4 310.5C546.1 309.6 549.1 309.1 552.1 309.3C552.9 309.4 553.6 309.5 554.4 309.7C555.3 309.9 556.2 310.4 556.9 311C558.4 312.3 559 313.9 559.5 315.3C560.4 318.2 560.9 320.8 561.7 323.3C562.5 325.7 563.6 327.8 565.1 329.3C566.6 330.8 568.6 331.7 570.8 332.3C573 332.8 575.5 333 578 333L577.9 339.7Z" fill="#D8C7B2"/>
<path d="M557.7 369.1C551 364 547.6 352.8 553.8 343.8C551.4 353.4 551.1 361.1 557.7 369.1Z" fill="#544444"/>
<path d="M582.6 375.8C566.3 376.2 556.4 364.7 559.7 350.9C560.1 362.1 563.1 372.4 582.6 375.8Z" fill="#544444"/>
<path d="M611.932 372.206C619.84 366.745 621.493 355.43 615.625 346.931C609.757 338.432 598.589 335.969 590.681 341.429C582.773 346.889 581.12 358.206 586.988 366.704C592.856 375.203 604.024 377.666 611.932 372.206Z" fill="#A5816F"/>
<path d="M599.9 288.3H596.8C596.6 288.3 596.5 288.4 596.5 288.6V312.2C596.5 312.4 596.6 312.5 596.8 312.5H599.9C600.1 312.5 600.2 312.4 600.2 312.2V288.6C600.2 288.5 600.1 288.3 599.9 288.3Z" fill="#DB9A4B"/>
<path d="M598.5 299.2C603 302.5 610.3 302.1 614.8 299.9C620.4 297.1 620.4 291.1 619.4 288.7C616.2 281.3 607 282.9 598.7 291.3C596.2 293.8 598.5 299.2 598.5 299.2Z" fill="#EFC867"/>
<path d="M599 298.8C590.3 306.2 585.4 300.3 584.7 295.7C583.6 288 590.7 284.3 597.8 291.7C600.1 293.9 599 298.8 599 298.8Z" fill="#EFC867"/>
<path d="M602.3 310.6H594.6C594.2 310.6 593.9 310.9 593.9 311.3V317.4C593.9 317.8 594.2 318.1 594.6 318.1H602.3C602.7 318.1 603 317.8 603 317.4V311.3C603 310.9 602.7 310.6 602.3 310.6Z" fill="#DB9A4B"/>
<path d="M612.5 357C587.1 359.7 573.9 352.7 573.1 335.6C572.2 318.5 591.1 312.9 601.8 313.7C612.5 314.6 634.9 318 638.4 325.7C641.7 333.5 644.2 353.6 612.5 357Z" fill="#D8C7B2"/>
<path d="M638.3 325.8C633.2 331.2 613.8 353.6 597.2 336.8C588.4 327.9 580.2 325.8 575.8 324.7C573.9 327.7 572.8 331.3 573.1 335.6C574 352.7 587.4 360.8 612.7 358.1C644.4 354.7 641.7 333.5 638.3 325.8Z" fill="#CEB79F"/>
<path d="M225.8 302.1C178.5 350.3 129.8 333.1 121.3 335.4C112.8 337.6 93.5 344.4 86.7 360.2C82.6 369.7 62.3 365.4 66.5 347.7C70.7 330 85.3 308.2 95.6 307.1C105.8 306 122.3 293.4 128.7 284.6C135.1 275.7 153.9 222 175.1 212.8C196.3 203.7 276.8 250.1 225.8 302.1Z" fill="#5B4545"/>
<path d="M103.9 14.7001C96.1 30.9001 109.9 37.0001 109.9 37.0001C109.9 37.0001 78.3999 45.3001 54.5999 85.8001C32.6999 123.1 57.7 206.1 122.9 214.6L133.5 198.9C93.6999 190.8 67.6 148.9 83.7 106.8C94 79.8001 165.7 77.6001 167.8 36.9001C169.9 -3.4999 115 -8.39991 103.9 14.7001Z" fill="#665252"/>
<path d="M103.9 14.7001C96.0999 30.9001 109.9 37.0001 109.9 37.0001C109.9 37.0001 78.3999 45.3 54.5999 85.8C53.3999 87.9 52.2999 90.1001 51.3999 92.5001C54.1999 119.2 66.2999 142.6 83.9999 158.3C77.5999 143 76.6999 124.9 83.5999 106.9C93.8999 79.9001 165.6 77.7001 167.7 37.0001C169.9 -3.49995 115 -8.39993 103.9 14.7001Z" fill="#7C6666"/>
<path d="M354.3 100.6C352.5 103.6 355.7 125.6 367.4 144.3C371.2 150.3 413.6 143.1 413.6 143.1C402.5 124.8 356.5 97 354.3 100.6Z" fill="#AF9797"/>
<path d="M317 280.1C414.1 317.2 453.5 309.8 453.5 309.8C453.5 309.8 490.6 272.1 486.6 264.1C482.6 256.1 452.9 277.2 452.9 277.2C452.9 277.2 387.8 253.8 379.2 241.8C370.6 229.8 317 280.1 317 280.1Z" fill="#665252"/>
<path d="M486.6 264.1C482.6 256.1 452.9 277.2 452.9 277.2C452.9 277.2 428.3 268.3 407.3 258.7C403.2 263.4 400.9 268.5 400.9 274C400.9 291.2 423.5 305.6 453.8 309.3C457.7 305.4 490.4 271.6 486.6 264.1Z" fill="#7C6666"/>
<path d="M454 276.5C452.8 281.2 452.1 286.3 452.1 291.6C452.1 297.7 453 303.4 454.5 308.7C464.2 302.8 494.2 272.1 487.3 263.2C480.6 254.4 459.2 272.9 454 276.5Z" fill="#BA9B8A"/>
<path d="M272.3 202.4C257 197.5 237.2 195.2 219.6 194.3L223.9 200.1C212.1 197.3 200.8 195.8 190 195.6L194.3 200.7C179.9 195.6 164.8 192.8 148.9 192.6L155.3 199C141.3 196.5 128.1 196.2 115.5 197.7C115.5 197.7 85.9 297.5 122.4 314.2C158.8 330.9 242.9 355.1 318.2 316.3C370.4 289.4 390.6 260.2 394.5 232.8C398.1 206.6 325.4 187.4 272.3 202.4Z" fill="#725E5E"/>
<path d="M241.2 196.1C233.9 195.2 226.6 194.6 219.6 194.3L223.9 200.1C212.1 197.3 200.8 195.8 190 195.6L194.3 200.7C179.9 195.6 164.8 192.8 148.9 192.6L155.3 199C141.3 196.5 128.1 196.2 115.5 197.7C115.5 197.7 98.4 255.3 106.2 290.3C124.3 293.4 163.2 308.4 179.8 293C221.2 254.4 227.3 216.1 241.2 196.1Z" fill="#7C6666"/>
<path d="M320.3 197.3C321.1 201.8 321.5 206.3 321.5 211C321.5 259.7 275.1 299.3 217.8 299.3C160.5 299.3 137.9 254 137.9 205.2C137.9 201 125.7 195 113.7 194.5C109.8 203.7 87.8 298.4 122.3 314.3C158.7 331 246.2 357.2 321.5 318.4C373.7 291.5 390.5 260.3 394.3 232.9C397 214.1 360.7 198.9 320.3 197.3Z" fill="#665252"/>
<path d="M132.6 318.6C169.5 333.3 237.6 350.2 301.3 327.1C244.4 332.6 184.8 326.2 152.3 311.2C142.2 306.5 137.8 316.6 132.6 318.6Z" fill="#5B4545"/>
<path d="M394.4 242.7C389.4 264 378.1 275.3 378.1 275.3L374.9 272.7C374.9 272.7 361.8 297.4 340 303.8C316.7 310.6 316.2 292.2 316.2 292.2L330.4 265.3L326.7 264.5C326.7 264.5 327.1 254.7 345.5 245.9C362.1 238 394.4 242.7 394.4 242.7Z" fill="#7C6666"/>
<path d="M257.1 124C256 129.3 260.4 159.2 283.3 182.7L321.1 146.7C301.2 128.1 258.2 118.7 257.1 124Z" fill="#AF9797"/>
<path d="M262 128.7C261.1 133.2 266.4 160.2 285.8 180.1L317.7 149.7C300.9 133.8 262.9 124.1 262 128.7Z" fill="#564141"/>
<path d="M263.9 131.1C263 135.3 268 160.1 285.9 178.4L315.3 150.4C299.7 135.9 264.7 127 263.9 131.1Z" fill="#E06161"/>
<path d="M297.1 157C298.5 159.3 299.8 161.7 300.9 164.1L315.3 150.4C301.3 137.3 271.5 128.8 265.1 130.2C276.6 133.7 288.6 143.2 297.1 157Z" fill="#BA4F4F"/>
<path d="M362.9 132.4C364.8 133.7 370.1 135.4 372.6 139.7L385.7 136.5C378.8 131.1 367.4 131.2 363.1 131.5C362.7 131.5 362.5 132.1 362.9 132.4Z" fill="#8C7474"/>
<path d="M379.4 131.6C381 132.8 384.4 135.4 388.8 138.9L402.2 137.4C395.1 131.6 383.6 130.9 379.7 130.9C379.2 130.8 379 131.3 379.4 131.6Z" fill="#8C7474"/>
<path d="M382.3 257.1C334.3 258.4 302 246.4 302 246.4L306.8 243.7C306.8 243.7 285.1 239.7 280 237.1L282.5 232.4C282.5 232.4 259.4 228.3 258.5 226.4C257.6 224.5 261.9 223.2 261.9 223.2C261.9 223.2 245.9 220.8 245.9 218.9C246 217 263 204.8 263 204.8C263 204.8 258.7 204.7 258.3 202.3C257.9 199.9 275.7 192.9 275.7 192.9C275.7 192.9 266.8 189.3 266.9 186.4C267 183.6 280.6 180.5 280.6 180.5C290.1 164.5 303.6 153.3 320.3 145.9C320.3 145.9 317.3 136.6 317.3 134.7C317.4 132.8 330 138.3 330 138.3C330 138.3 328.1 134.1 329.1 132.2C330.1 130.3 351.9 136.9 351.9 136.9C351.9 136.9 345.8 133.4 346.9 131.5C347.9 129.6 369 136 369 136C369 136 405.2 135.4 409.5 137.4C413.7 139.4 437.9 161.4 438.3 165.7C438.6 170 434 167 434 167C434 167 441.8 175.3 446.4 180.2C451 185.1 442 183.4 442 183.4C442 183.4 449.5 188.6 451.5 191.3C455.1 196.1 449.3 197.9 448.2 197.4C448.2 197.4 458 208.9 458.4 211.2C458.8 213.6 450.2 216.4 450.2 216.4C450.2 216.4 454.4 219.1 454.3 221C454.2 222.9 442.8 224.9 442.8 224.9C442.8 224.9 449.1 228.7 446.7 230.5C444.3 232.3 431.9 234.1 431.9 234.1C431.9 234.1 442.2 237.3 437.4 240.4C430.8 244.9 400.2 256.6 382.3 257.1Z" fill="#8C7474"/>
<path d="M451.5 191.5C449.5 188.8 442 183.6 442 183.6C442 183.6 451 185.3 446.4 180.4C441.8 175.5 434 167.2 434 167.2C434 167.2 438.6 170.2 438.3 165.9C438 161.6 413.7 139.6 409.5 137.6C408.1 136.9 403.1 136.5 397.1 136.3C394.6 143.8 394.4 152.6 397 162C404.3 189 431.3 211 458.2 212.2C458.4 211.9 458.5 211.6 458.4 211.3C458 208.9 448.2 197.5 448.2 197.5C449.4 198.1 455.1 196.3 451.5 191.5Z" fill="#7C6666"/>
<path d="M387.2 167.9C381.9 156.6 373.9 140.1 354.3 132.2C350.5 131.4 347.4 130.9 347 131.6C351.7 133.3 355 138.5 355 138.5C355 138.5 330.3 130.5 329.3 132.3C332.1 133.9 334.9 141.5 334.9 141.5C334.9 141.5 317.6 132.9 317.5 134.8C317.4 136.7 325.3 146.4 325.3 146.4C308.6 153.8 290.2 164.5 280.7 180.5C280.7 180.5 267.1 183.6 267 186.4C266.9 189.2 275.8 192.9 275.8 192.9C275.8 192.9 258 199.9 258.4 202.3C258.8 204.7 263.1 204.8 263.1 204.8C263.1 204.8 246.3 216.9 246.1 218.9C258.8 221.7 272.4 223.2 286.5 223.2C345.9 223.2 404.9 205.8 387.2 167.9Z" fill="#7C6666"/>
<path d="M410.3 204.4C405.2 226.1 397.9 235.6 391 235.6C384.1 235.6 390.7 209.3 390.7 209.3L403.6 198.6L410.3 204.4Z" fill="#3D2E2E"/>
<path d="M395.9 217.5C394.2 216.9 392.5 216.4 390.8 216C389.6 221.5 387.5 233.5 391.6 233.5C395.5 233.5 399.5 229.6 402.9 220.9C400.8 219.6 398.5 218.4 395.9 217.5Z" fill="#D85D5D"/>
<path d="M404.5 201.8C394.4 210.4 384.4 221.3 363.2 216.1C348.2 212.4 358.8 197 364.1 195C369.4 193 393.9 190.5 396.7 191.1C401 192 407.1 199.5 404.5 201.8Z" fill="#EAD5BE"/>
<path d="M404.3 199.1C407.4 206.4 421.4 214.9 425.4 215.4C429.5 216 437.7 204.8 434.5 200.2C431.5 195.9 417.1 190.9 412.6 190.7C408.2 190.6 403.1 196.4 404.3 199.1Z" fill="#EAD5BE"/>
<path d="M426 211C418.2 206.8 413.8 199.6 416.3 195C417 193.8 418.1 192.9 419.4 192.2C416.6 191.3 414 190.7 412.5 190.7C408.1 190.6 403.1 196.4 404.2 199.1C407.3 206.4 421.3 214.9 425.3 215.4C426.7 215.6 428.4 214.5 430.1 212.8C428.8 212.3 427.4 211.7 426 211Z" fill="#DBBA9A"/>
<path d="M403.6 200.1C397.8 199.3 392.5 192.9 393.7 190.5C395 188.2 414.2 185.7 419.1 190.1C421.7 192.6 410.6 201.1 403.6 200.1Z" fill="#D85D5D"/>
<path d="M419.3 175.7L427.6 176C427.6 176 427.1 186.5 419.8 185.3C415.6 184.7 419.3 175.7 419.3 175.7Z" fill="#564141"/>
<path d="M366.8 172.6L375.8 172.9C375.8 172.9 375.2 185.8 367.3 184.4C362.9 183.7 366.8 172.6 366.8 172.6Z" fill="#564141"/>
<path d="M225.7 286.7C270.3 338.1 358 337.1 390.6 330.9C400.8 328.9 433.3 305.4 425.3 295.3C419.8 288.3 392 303.4 392 303.4C392 303.4 322.9 275.3 296.8 249.4C261.8 214.9 205.7 267.2 225.7 286.7Z" fill="#7C6666"/>
<path d="M391.9 303.5C391.9 303.5 350.2 286.6 319.4 266.9C298.2 273.3 322.4 331 369.3 331C378.4 331 387.2 330.4 395.4 329.3C408.4 323.3 432.2 304.3 425.3 295.5C419.7 288.3 391.9 303.5 391.9 303.5Z" fill="#8C7474"/>
<path d="M162.1 221.7L168.2 301.7L195.6 306.4C201.6 265.8 190 238.4 162.1 221.7Z" fill="#665252"/>
<path d="M170.3 302.2C117.8 345.1 68.2999 322.8 59.2999 324.1C50.2999 325.4 29.6999 330.1 21.5999 345.1C16.6999 354.1 -4.10004 347.7 1.49996 330.5C7.09996 313.4 23.8 293.2 34.5 293.2C45.2 293.2 64.6 275.1 71.9 266.9C79.2 258.8 104 211.5 126.7 204.6C149.4 197.8 226.9 255.9 170.3 302.2Z" fill="#7C6666"/>
<path d="M42.4 290.9C39.5 292.3 36.8 293.2 34.5 293.2C23.8 293.2 7.10001 313.3 1.50001 330.5C-4.09999 347.6 16.8 354 21.6 345.1C23.5 341.6 26 338.7 28.9 336.3C23.5 330.5 13.4 319.1 42.4 290.9Z" fill="#CCB2A2"/>
<path d="M126.7 204.7C104 211.6 79.1 258.8 71.9 267C69.1 270.1 64.6 274.6 59.5 279C60 285 61.7 290.6 64.8 295.7C80.3 321.5 123.7 323.8 161.9 300.9C172 294.8 180.7 287.6 187.8 279.7C203.8 239.2 145.9 198.9 126.7 204.7Z" fill="#8C7474"/>
<path d="M593.742 367.039C601.65 361.579 603.304 350.263 597.435 341.764C591.567 333.266 580.399 330.803 572.492 336.263C564.584 341.723 562.93 353.039 568.798 361.538C574.667 370.037 585.834 372.5 593.742 367.039Z" fill="#BA9B8A"/>
<path d="M595 344.2C590.6 336.7 581.4 334.1 574.4 338.3C567.4 342.5 565.3 352 569.7 359.5C574.1 367 583.3 369.6 590.3 365.4C597.3 361.1 599.4 351.6 595 344.2Z" fill="#CCB2A2"/>
<path d="M426.5 294.7C419.3 285.4 393.5 302 393.5 302C393.5 302 391.6 303.4 391.1 303.1C380.9 309.5 380.2 330.1 385.4 331.8C388 331.6 394 331.1 396.5 330.7C409.5 324.7 434.8 305.3 426.5 294.7Z" fill="#CCB2A2"/>
<path d="M344 171.3C363.9 176.8 382.4 176.3 382.4 176.3C382.4 172.4 379.2 169.4 375.3 169.6L344 171.3Z" fill="#564141"/>
<path d="M405.8 175.4C420.5 180.9 434.2 180.4 434.2 180.4C434.2 176.6 430.9 173.5 427.1 173.8L405.8 175.4Z" fill="#564141"/>
<path d="M404.8 198.8C400.1 198.1 395.7 192.6 396.8 190.6C397.8 188.6 413.5 186.6 417.5 190.4C419.6 192.5 410.6 199.7 404.8 198.8Z" fill="#EF7878"/>
<path d="M396.8 194.2C401.1 191.7 404.2 191.9 406.1 192.7C408 193.5 402.5 198.7 402.5 198.7C399.7 198.1 397.5 196.9 396.8 194.2Z" fill="#D85D5D"/>
<path d="M411.7 197.7C411.7 197.7 412 191.9 413.3 191.9C414.6 191.9 417.4 193.8 417.4 193.8C416.1 195.5 414.2 196.8 411.7 197.7Z" fill="#D85D5D"/>
<path d="M428 297.9C419.1 299.3 407.8 305.7 398 315.9C393.1 321 389.1 326.4 386.3 331.7C389.2 331.4 394.3 331 396.6 330.7C408.3 325.3 430.1 308.8 428 297.9Z" fill="#BA9B8A"/>
<path d="M194.7 263.4C184.2 241.8 171.3 234.7 171.3 234.7C171.3 234.7 177.7 232.6 185.9 236.2C194.1 239.9 194.7 263.4 194.7 263.4Z" fill="#7C6666"/>
<path d="M193.2 243.4C172.8 226.6 154.3 224.2 154.3 224.2C154.3 224.2 161.6 220 173.1 220.7C184.5 221.5 193.2 243.4 193.2 243.4Z" fill="#7C6666"/>
<path d="M183.1 229.4C159.8 216.8 141.2 218.1 141.2 218.1C141.2 218.1 147.6 212.6 158.9 211C170.3 209.5 183.1 229.4 183.1 229.4Z" fill="#7C6666"/>
<path d="M167 215.3C141.3 208.8 123.6 214.6 123.6 214.6C123.6 214.6 128.5 207.7 139.1 203.4C149.7 199.2 167 215.3 167 215.3Z" fill="#7C6666"/>
<path d="M231.9 248C229.2 283.2 247.6 297.3 247.6 297.3C247.6 297.3 218.7 292.9 218.3 279.5C217.6 255.7 231.9 248 231.9 248Z" fill="#725E5E"/>
<path d="M241.6 230.9C234.1 265.4 250.4 281.9 250.4 281.9C250.4 281.9 222.4 273.5 223.8 260.3C226.4 236.4 241.6 230.9 241.6 230.9Z" fill="#725E5E"/>
<path d="M261.1 231C243.1 250.9 247.6 267.9 247.6 267.9C247.6 267.9 232.3 251.8 238.2 243.6C248.9 228.9 261.1 231 261.1 231Z" fill="#725E5E"/>
<path d="M274.7 233.1C255.1 243.9 254.1 258.6 254.1 258.6C254.1 258.6 246.4 241.8 253.3 236.9C265.7 228.2 274.7 233.1 274.7 233.1Z" fill="#725E5E"/>
<path d="M247.2 217.4C246.5 218.1 246 218.7 246 219C245.9 220.9 262 223.3 262 223.3C262 223.3 257.7 224.6 258.6 226.5C258.6 226.6 258.8 226.7 258.9 226.8L293.3 223.8C293.3 223.9 262.9 221.1 247.2 217.4Z" fill="#665252"/>
<path d="M267.5 185.5C267.2 185.8 267 186.2 266.9 186.5C266.8 189.3 275.7 193 275.7 193C275.7 193 266.2 196.7 261.3 199.7L294.2 196.8C294.3 196.7 285.4 195.4 267.5 185.5Z" fill="#725E5E"/>
<path d="M393 238.9C384.8 241.9 382.8 235.3 384.4 230.7C384.7 236.3 387.4 239.2 393 238.9Z" fill="#665252"/>
<path d="M390.2 212.2C376.4 216 364.8 213.2 364.2 206.1C363.9 201.9 367.4 197.2 373.1 193.2C369.1 193.8 365.7 194.4 364.1 195C358.8 197 348.2 212.4 363.2 216.1C376.4 219.4 385.3 216.3 392.5 211.5C391.7 211.8 391 212 390.2 212.2Z" fill="#DBBA9A"/>
<path d="M646.9 329.5C638.1 326.7 648.5 307.3 657.7 307.8C663 308.1 665 314.1 664.6 318C663.9 324.6 654.1 331.8 646.9 329.5Z" fill="#C6A98F"/>
<path d="M640.9 327.2C630.3 329.2 628.7 304.6 638.3 300.1C643.8 297.6 649.5 302.3 651.6 306.4C655 313.3 649.6 325.6 640.9 327.2Z" fill="#D8C7B2"/>
<path d="M655 330C656.049 330 656.9 329.06 656.9 327.9C656.9 326.74 656.049 325.8 655 325.8C653.951 325.8 653.1 326.74 653.1 327.9C653.1 329.06 653.951 330 655 330Z" fill="#A5816F"/>
<path d="M640.1 340.7L630 330.7C630 330.7 627.1 340.3 636.7 347.1C638.2 345.1 639.5 342.8 640.1 340.7Z" fill="#A5816F"/>
<path d="M630.1 330.3C628.6 336.1 633.4 342.6 639.8 343.3C661.6 345.7 682.7 338.5 683.2 337.7C683.8 336.8 658.6 331.1 652.9 327.4C647.2 323.7 638 321.7 632.6 326C631.2 327.1 630.5 328.7 630.1 330.3Z" fill="#D8C7B2"/>
<path d="M571.2 359.7C567.1 352.7 569.3 343.6 576.2 339.5C580.9 336.7 586.6 336.9 591.1 339.6C586.3 335.8 579.7 335.1 574.5 338.3C567.5 342.5 565.4 352 569.8 359.5C574 366.7 582.7 369.4 589.5 365.9C582.9 368.7 575 366.2 571.2 359.7Z" fill="#A5816F"/>
<path d="M585.1 350.1C584.1 348.5 582.1 347.9 580.6 348.8C579.1 349.7 578.6 351.8 579.6 353.4C580.6 355 582.6 355.6 584.1 354.7C585.6 353.8 586.1 351.7 585.1 350.1Z" fill="#BA9B8A"/>
<path d="M682.9 337.5C676.5 339.3 669 340.3 660.9 340.3C648.6 340.3 637.6 337.5 629.9 333.6C630.1 336.3 633.8 344.5 639.6 344.7C664.5 345.4 682.7 338.5 683.2 337.7C683.2 337.7 683.1 337.6 682.9 337.5Z" fill="#CEB79F"/>
<path d="M640.2 324.3C632.1 325.8 630.8 306.9 638.2 303.5C642.4 301.6 646.8 305.2 648.4 308.3C651 313.6 646.9 323 640.2 324.3Z" fill="#C6A98F"/>
<path d="M647.7 328C648.97 328 650 326.836 650 325.4C650 323.964 648.97 322.8 647.7 322.8C646.43 322.8 645.4 323.964 645.4 325.4C645.4 326.836 646.43 328 647.7 328Z" fill="#A5816F"/>
<path d="M599.9 298C603.7 300.7 609.8 300.4 613.5 298.6C618.2 296.3 618.2 291.2 617.3 289.2C614.6 283 606.9 284.4 600 291.4C597.9 293.5 599.9 298 599.9 298Z" fill="#DB9A4B"/>
<path d="M597.3 297.8C590.7 303.4 587 298.9 586.5 295.4C585.6 289.5 591 286.7 596.5 292.4C598.1 294.2 597.3 297.8 597.3 297.8Z" fill="#DB9A4B"/>
</svg>
