<svg width="565" height="332" viewBox="0 0 565 332" fill="none" xmlns="http://www.w3.org/2000/svg">
<path d="M52 248.6C56.2 190 76.3 167.2 76.3 167.2C76.3 167.2 70.2 152.4 73.3 147.3C76.4 142.2 85.5 150.7 85.5 150.7C85.5 150.7 83.7 131.9 86.8 127.4C89.9 122.8 98.3999 131.4 98.3999 131.4C98.3999 131.4 95.5999 114.3 103.9 110.9C112.2 107.5 117.2 123.4 117.2 123.4C117.2 123.4 120.6 106.3 126.3 105.8C132 105.2 137.7 122.9 137.7 122.9C137.7 122.9 138.9 114.9 146.9 114.9C154.9 114.9 153.8 124 166.1 129.7C178.4 135.4 214.1 132 214.1 132L234.6 262.9C162.2 263.5 90.9 263.8 52 248.6Z" fill="#EA8C3F"/>
<path d="M71.4001 209.2C118.6 222.4 182.9 138 183.4 132.7C176.5 132.3 170.1 131.5 166.1 129.6C153.8 123.9 154.9 114.8 146.9 114.8C138.9 114.8 137.7 122.8 137.7 122.8C137.7 122.8 132 105.2 126.3 105.7C120.6 106.3 117.2 123.3 117.2 123.3C117.2 123.3 112.2 107.4 103.9 110.8C95.6001 114.2 98.4001 131.3 98.4001 131.3C98.4001 131.3 89.9003 122.8 86.8003 127.3C83.7003 131.9 85.5002 150.6 85.5002 150.6C85.5002 150.6 76.4003 142.1 73.3003 147.2C70.2003 152.3 76.3003 167.1 76.3003 167.1C76.3003 167.1 66.5002 178.2 59.2002 204.7C63.1002 206.5 67.2001 208 71.4001 209.2Z" fill="#F9A55A"/>
<path d="M117.5 157C135.5 149.2 151.1 139.2 163.4 128.2C153.9 122.5 154.3 114.8 146.9 114.8C138.9 114.8 137.7 122.8 137.7 122.8C137.7 122.8 132 105.2 126.3 105.7C120.6 106.3 117.2 123.3 117.2 123.3C117.2 123.3 112.2 107.4 103.9 110.8C95.6003 114.2 98.4003 131.3 98.4003 131.3C98.4003 131.3 89.9004 122.8 86.8004 127.3C83.7004 131.9 85.5004 150.6 85.5004 150.6C85.5004 150.6 76.4004 142.1 73.3004 147.2C70.2004 152.3 76.3004 167.1 76.3004 167.1C76.3004 167.1 75.6003 167.9 74.4003 169.7C88.2003 167.5 102.9 163.3 117.5 157Z" fill="#FFD0A9"/>
<path d="M249.3 252.5C218 253.6 202.6 242.8 202.6 242.8C206.6 240.5 182.7 238.2 180.4 235.4C178.1 232.6 195.2 224.6 195.2 224.6C195.2 224.6 176.4 226.3 172.4 222.9C168.4 219.5 185.5 204.7 185.5 204.7C185.5 204.7 160.5 200.7 158.2 198.4C155.9 196.1 192.9 162 192.9 162C192.9 162 175.3 161.4 175.3 157.4C175.3 153.4 206 138 206 138C206 138 198 137.4 198.6 133.4C199.2 129.4 215.7 127.7 215.7 127.7C215.7 127.7 215.7 124.3 217.4 119.7C219.1 115.1 232.8 110 232.8 110L294.8 89.5C294.8 89.5 308.5 78.7 312.4 79.3C316.4 79.9 329.5 79.9 329.5 79.9C329.5 79.9 344.9 76.5001 349.4 77.1001C354 77.7001 355.7 81.7001 355.7 81.7001C355.7 81.7001 376.8 77.1 380.7 78.3C384.7 79.4 388.1 86.3 388.1 86.3C388.1 86.3 438.2 103.4 442.7 109.6C447.3 115.9 447.3 126.1 447.3 126.1C447.3 126.1 459.8 135.8 463.8 142.6C467.8 149.4 467.8 152.3 467.8 152.3C467.8 152.3 487.2 172.2 489.4 177.9C491.7 183.6 487.7 186.4 487.7 186.4C487.7 186.4 495.7 197.8 496.8 201.8C497.9 205.8 487.1 209.8 487.1 209.8C487.1 209.8 487.7 216.1 486 218.9C484.3 221.7 471.8 216.1 471.8 216.1C471.8 216.1 481.5 228.1 478.6 230.3C475.8 232.6 463.2 230.3 463.2 230.3C463.2 230.3 471.7 235.4 471.2 237.7C470.6 240 427.4 247.4 427.4 247.4C379.3 265 315.3 260.3 249.3 252.5Z" fill="#FFE3C5"/>
<path d="M355.8 252.3C283.7 248.3 195.2 224.6 195.2 224.6C195.2 224.6 178.1 232.6 180.4 235.4C182.7 238.2 206.6 240.5 202.6 242.8C202.6 242.8 218 253.6 249.3 252.5C315.3 260.2 379.2 265 427.5 247.4C427.5 247.4 470.8 240 471.3 237.7C471.9 235.4 463.3 230.3 463.3 230.3C463.3 230.3 475.8 232.6 478.7 230.3C480.5 228.9 477.5 223.8 474.9 220.2C433.8 226.5 412.4 255.4 355.8 252.3Z" fill="#F4BF98"/>
<path d="M334.2 197.3C344 187.5 342.3 114.9 330.3 79.9001C329.9 80.0001 329.6 80.0001 329.6 80.0001C329.6 80.0001 316.5 80.0001 312.5 79.4001C308.5 78.8001 294.9 89.6001 294.9 89.6001L232.9 110.1C232.9 110.1 219.2 115.2 217.5 119.8C215.8 124.4 215.8 127.8 215.8 127.8C215.8 127.8 199.3 129.5 198.7 133.5C198.1 137.5 206.1 138.1 206.1 138.1C206.1 138.1 175.4 153.5 175.4 157.5C175.4 161.5 193 162.1 193 162.1C193 162.1 187.6 167.1 181.1 173.3C229.3 220.2 323.9 207.5 334.2 197.3Z" fill="#F9A55A"/>
<path d="M487.3 209.8C487.3 209.8 498.1 205.8 497 201.8C495.9 197.8 487.9 186.4 487.9 186.4C487.9 186.4 491.9 183.6 489.6 177.9C487.3 172.2 468 152.3 468 152.3C468 152.3 468 149.5 464 142.6C460 135.7 447.5 126.1 447.5 126.1C447.5 126.1 447.5 115.9 442.9 109.6C438.3 103.3 388.3 86.3 388.3 86.3C388.3 86.3 384.9 79.5 380.9 78.3C376.9 77.2 355.9 81.7001 355.9 81.7001C355.9 81.7001 354.4 78.2 350.5 77.3C345.6 124.4 366 183.2 371.3 192.1C377.7 202.8 434.8 216.8 473.2 217.5C472.5 216.6 472.1 216 472.1 216C472.1 216 473.7 216.7 475.8 217.5C479.8 217.5 483.6 217.4 487.1 217C487.7 214.1 487.3 209.8 487.3 209.8Z" fill="#F9A55A"/>
<path d="M472.8 331.1H36.8003C36.8003 331.1 -0.799806 320.9 0.400194 265.6C1.50019 210.4 21.5003 208.1 28.3003 207.5C35.1003 206.9 139.3 243.9 152.4 246.2C165.5 248.5 269.1 243.4 281 245.6C293 247.9 367 253 367 253C367 253 484.6 229 495.6 235.9C518.3 250.3 472.8 331.1 472.8 331.1Z" fill="#E23754"/>
<path d="M473.1 299.2C450.3 294.5 436.4 268.2 441.1 239.7C419.6 243 396.6 247.3 382 250.1C386.3 267.9 381.4 284.9 368.7 291.6C352.6 300.1 330.1 289.1 318.4 267C315.3 261.1 313.2 254.9 312.3 248.9C298 247.7 285.4 246.5 281 245.7C276.7 244.9 260.4 245 240.7 245.4C242.9 251 243.5 256.5 242.4 261.8C235 295.2 159.2 306.8 73.1002 287.7C46.2001 281.7 21.5 273.5 0.399956 264C0.399956 264.5 0.400103 265 0.300103 265.6C-0.799898 320.8 36.7 331.1 36.7 331.1H472.7C472.7 331.1 480.8 316.7 488.5 299C483.5 300.2 478.3 300.3 473.1 299.2Z" fill="#B72041"/>
<path d="M252.2 241.6C248.8 252.4 258.5 281.9 276.7 282.4C294.9 282.9 303.5 257.1 301.2 246.8C303 229.1 254.1 224 252.2 241.6Z" fill="#F9A55A"/>
<path d="M387.4 237.3C384.8 248.3 396.3 276.2 414.3 274.7C432.3 273.2 434.6 242.7 431.7 232.8C430.3 218.8 386 223.3 387.4 237.3Z" fill="#F9A55A"/>
<path d="M197 25.0001C197.4 28.8001 226 96.3001 234.1 113.8L299.8 91.6001C249.1 13.9001 196.4 19.9001 197 25.0001Z" fill="#F9A55A"/>
<path d="M386.5 91.2C409.1 38.3 461.2 -0.20002 468 0.29998C474.8 0.69998 445.8 127.5 445.8 127.5L386.5 91.2Z" fill="#F9A55A"/>
<path d="M354.7 250C347.4 250 320.4 239.4 319.4 238.8C317.2 237.4 316.3 233.8 316.3 227.3C316.3 225.9 317.4 224.7 318.9 224.7C320.3 224.7 321.5 225.8 321.5 227.3C321.5 232.5 322.2 234.2 322.4 234.6C325.8 236.1 349.3 245 354.8 245C360.3 245 379.7 234.5 381.8 232.6C382.3 231.9 383.2 228.2 383.6 224.8C383.8 223.4 385.1 222.4 386.4 222.5C387.8 222.7 388.8 223.9 388.7 225.3C388.4 227.9 387.5 234.1 385.4 236.2C383.3 238.1 362.3 250 354.7 250Z" fill="#683838"/>
<path d="M354.7 250C354.4 250 354.1 249.9 353.7 249.8C352.4 249.3 351.8 247.8 352.3 246.5C352.4 246.3 359 229.9 359.8 219.1C359.9 217.7 361.1 216.6 362.5 216.7C363.9 216.8 365 218 364.9 219.4C364 231 357.3 247.6 357 248.3C356.6 249.4 355.7 250 354.7 250Z" fill="#683838"/>
<path d="M360.9 224.1C349.6 222.5 334.7 219 335.3 215.6C335.9 212.2 378.6 212.8 380.3 214.5C382 216.1 364.9 224.6 360.9 224.1Z" fill="#683838"/>
<path d="M307 193.5C298.3 193.5 289.2 191.4 284 186.3C283 185.3 283 183.7 283.9 182.7C284.9 181.7 286.5 181.7 287.5 182.6C296.1 191 318.7 189 323.9 184.3C324.9 183.4 326.6 183.4 327.5 184.5C328.4 185.5 328.4 187.2 327.3 188.1C323.7 191.5 315.5 193.5 307 193.5Z" fill="#683838"/>
<path d="M404.2 190.1C403.9 190.1 403.7 190.1 403.4 190.1C394.6 190 387.2 187.3 383 182.9C382 181.9 382.1 180.3 383.1 179.3C384.1 178.3 385.7 178.4 386.7 179.4C389.9 182.8 396.1 184.9 403.5 185C411.3 185.1 417.4 183.1 419.5 181.1C420.5 180.1 422.1 180.1 423.1 181.1C424.1 182.1 424.1 183.7 423.1 184.7C419.7 187.9 412.3 190.1 404.2 190.1Z" fill="#683838"/>
<path d="M554.5 331.1H450.9C450.9 331.1 421.2 329.6 419.6 318C417 298.7 442.4 303 442.4 303C442.4 303 435.6 279.9 449.2 276.5C462.9 273.1 472.5 286.7 472.5 307.2L526.6 320.3C526.6 320.3 544.1 296.5 557.3 302.1C575 309.5 554.5 331.1 554.5 331.1Z" fill="#F2DFB8"/>
<path d="M557.3 302.1C547.9 298.1 536.3 309.1 530.4 315.7C535.1 323.4 543.8 328.6 553.8 328.6C554.8 328.6 555.8 328.5 556.8 328.4C561.6 322.3 571.1 307.8 557.3 302.1Z" fill="#FCECD0"/>
<path d="M472.5 307.2C472.5 286.7 462.8 273 449.2 276.5C435.6 280 442.4 303 442.4 303C442.4 303 417 298.7 419.6 318C419.9 320 421 321.7 422.6 323.1C431.3 324.4 440.7 325.1 450.5 325.1C472.5 325.1 492.6 321.5 507.8 315.7L472.5 307.2Z" fill="#FCECD0"/>
<path d="M401.9 94.2001C418 50.3001 454.2 18.6001 458.7 19.1001C463.2 19.6001 441.6 120.5 441.6 120.5L401.9 94.2001Z" fill="#E06332"/>
<path d="M275.5 258.5C266.8 258.5 258.8 256.5 252.1 253.1C254.4 265.9 251.6 282 276.5 282.4C305.7 282.8 300.9 263.6 301.4 251.7C294.3 256 285.3 258.5 275.5 258.5Z" fill="#F4BF98"/>
<path d="M406.6 252.5C399.8 252.5 393.4 250.7 387.9 247.8C390.8 260.3 392.9 277.2 414.7 276C436.9 274.8 432.7 255.2 432.8 242.3C426.2 248.6 416.9 252.5 406.6 252.5Z" fill="#F4BF98"/>
<path d="M208.5 32.2001C208.9 38.2001 233.2 94.1001 239.3 107.3L288.8 90.6001C250.6 32.1001 208.2 28.4001 208.5 32.2001Z" fill="#E06332"/>
<path d="M245.5 66.4C252.5 77.6 257.7 89.2001 260.8 100.1L288.8 90.6001C258.8 44.8001 226.4 32.5 213.8 31.3C225.1 39.6 236.2 51.6 245.5 66.4Z" fill="#CC512B"/>
<path d="M458.7 19.2C458.5 19.2 458.2 19.1999 457.9 19.3999C456.9 25.4999 455.7 31.8 454.2 38.1C447.4 66.2 436.2 90.5999 423.2 108.4L441.7 120.6C441.7 120.6 463.2 19.7 458.7 19.2Z" fill="#CC512B"/>
<path d="M266.1 168.4C296.8 189.3 325 173.1 325 173.1L326.3 159C313.6 167 288.9 167.4 266.1 168.4Z" fill="#FFE3C5"/>
<path d="M436.5 162C409.2 182.9 384.2 166.7 384.2 166.7L383.1 152.6C394.4 160.6 416.4 161 436.5 162Z" fill="#FFE3C5"/>
<path d="M178.6 153.9C176.6 155.4 175.3 156.7 175.3 157.5C175.3 161.5 192.9 162.1 192.9 162.1C192.9 162.1 187.5 167.1 181 173.3C181.8 174.1 180.5 176.9 181.3 177.6C201.2 167 213.5 155.2 213.5 155.2L178.6 153.9Z" fill="#FFE3C5"/>
<path d="M205.7 197.6C219.4 186.8 225.9 177.4 225.9 177.4L199.4 192.5L205.7 197.6Z" fill="#FFE3C5"/>
<path d="M204.6 138.1C216.5 134.5 233 129.9 233 129.9L198.7 133.6C198.9 136 200.3 137.8 204.6 138.1Z" fill="#FFE3C5"/>
<path d="M244.4 147.5C263.8 145.8 272.6 136.7 272.6 136.7C263 138.6 253.6 142.3 244.4 147.5Z" fill="#FFE3C5"/>
<path d="M230.7 205.6C250.1 203.9 258.9 194.8 258.9 194.8C249.4 196.7 240 200.4 230.7 205.6Z" fill="#FFE3C5"/>
<path d="M432.7 200.5C443.2 216.8 455.4 220.4 455.4 220.4C449.3 212.8 441.6 206.3 432.7 200.5Z" fill="#FFE3C5"/>
<path d="M429.2 137.2C437.7 146 445.6 146.7 445.6 146.7C440.9 142.8 435.4 139.7 429.2 137.2Z" fill="#FFE3C5"/>
<path d="M463.2 174.3C475.9 186.2 488.2 185.9 488.2 185.9C481.1 180.8 472.6 177 463.2 174.3Z" fill="#FFE3C5"/>
</svg>
