<svg width="468" height="340" viewBox="0 0 468 340" fill="none" xmlns="http://www.w3.org/2000/svg">
<path d="M154.6 338.7C143.1 338.7 102.5 338.7 102.5 338.7C102.5 338.7 80.1 278.4 82.2 250.5C84.3 222.6 149.6 240.9 149.6 240.9C149.6 240.9 137.3 304.3 141 316.6C140.9 316.6 155.4 323.4 154.6 338.7Z" fill="#EA7C32"/>
<path d="M283.1 258.8L392 339.1H467.4C467.4 339.1 464 313.8 430.4 316.5C430.4 316.5 356.1 240.5 353.6 235C351 229.4 283.1 258.8 283.1 258.8Z" fill="#F9A55A"/>
<path d="M377.5 299.2C380.8 291.7 388.7 286.8 399.6 284.6C378.9 263.1 355.1 238 353.6 234.9C351 229.3 283.2 258.8 283.2 258.8L392 339.1H393.3C379.1 325.1 372.6 310.4 377.5 299.2Z" fill="#EA8C3F"/>
<path d="M263.9 132.4C263.9 132.4 215.8 127.5 203.4 122.3C190.9 117 148.8 114.9 121.8 95.7001C94.3999 76.2001 68.0999 60 63.5999 61.4C61.9999 61.9 64.1999 75.5 59.7999 71C55.3999 66.5 35.5999 46.9 33.2999 48.9C30.9999 50.8 36.2999 69.5 33.7999 70C31.2999 70.4 24.1999 45.2001 21.9999 48.2001C12.6999 60.8001 21.0999 90.4 18.4999 89.9C15.8999 89.4 13.1 71.5 9.89997 75.8C3.69997 84.2 8.59992 112.9 8.59992 112.9C8.59992 112.9 2.49994 101 2.29994 105.3C0.399936 156.3 42.7 270.5 42.7 270.5C136.5 304.7 252.8 287.2 252.8 287.2L298.4 286.1C298.4 286.1 331 267.8 357.4 239.3L263.9 132.4Z" fill="#F9A55A"/>
<path d="M263.9 132.4C263.9 132.4 233.1 129.3 214.4 125.3C217.7 143.8 207.5 187.9 192.1 199C147.7 231.1 94.8 240 31.8 212.7C28.4 211.2 25.2 209.4 22 207.7C32.3 242.3 42.7 270.4 42.7 270.4C136.5 304.6 252.8 287.1 252.8 287.1L298.4 286C298.4 286 331 267.7 357.4 239.2L263.9 132.4Z" fill="#F49140"/>
<path d="M189.6 276.8C125.8 276.8 68.7999 261.5 31.3999 237.5C37.7999 257.1 42.7999 270.4 42.7999 270.4C136.6 304.6 254 290.5 254 290.5L316.8 283.7C316.8 283.7 331.1 267.8 357.5 239.2L353 234.1C315.7 260 256.4 276.8 189.6 276.8Z" fill="#EA7C32"/>
<path d="M90.4001 74.6C76.7001 66 66.3001 60.6 63.7001 61.4C62.1001 61.9 64.3001 75.5 59.9001 71C55.5001 66.5 35.7001 46.9 33.4001 48.9C31.1001 50.8 36.4001 69.5 33.9001 70C31.4001 70.4 24.3 45.2001 22.1 48.2001C12.8 60.8001 21.2 90.4 18.6 89.9C16 89.4 13.2001 71.5 10.0001 75.8C3.80007 84.2 8.70008 112.9 8.70008 112.9C8.70008 112.9 2.60009 101 2.40009 105.3C2.10009 112.9 2.80008 121.9 4.20008 131.7C26.3001 107.5 55.9001 87.9 90.4001 74.6Z" fill="#FFD0A9"/>
<path d="M262.6 218.3C285.2 275.1 334.4 315.3 334.4 315.3C334.4 315.3 363.2 310.4 371 338.7H292.4C292.4 338.7 204.5 284.9 192.1 270C179.7 255.1 198.9 211.1 216 203.4C233.1 195.6 262.6 218.3 262.6 218.3Z" fill="#F9A55A"/>
<path d="M264.9 285C269.1 276.1 278.4 270.3 290.6 267.8C280.2 253.6 269.9 236.8 262.5 218.3C262.5 218.3 233 195.7 216 203.4C198.9 211.1 179.7 255.1 192.1 270C201.1 280.9 250.2 312.4 276.2 328.7C263.9 313.2 259.1 297.3 264.9 285Z" fill="#F49140"/>
<path d="M74.2999 170.9L64.8999 262.3L88.7999 275.1C103.4 220 74.2999 170.9 74.2999 170.9Z" fill="#EA7C32"/>
<path d="M85.4 337.4H22.4C22.4 337.4 -23.1 176.4 17 121.7C57.1 66.9999 90.1 184 85.5 222.6C80.9 261.2 69.7 299.8 71.7 312.1C71.8 312.1 85.4 325.1 85.4 337.4Z" fill="#F49140"/>
<path d="M16.9998 121.7C-5.10019 151.9 -1.2002 214.5 6.7998 264.5C14.5998 275 23.8998 281.1 33.9998 281.1C59.8998 281.1 81.1998 240.5 83.4998 188.6C75.3998 141 48.3998 79 16.9998 121.7Z" fill="#F9A55A"/>
<path d="M443.2 200.3C443.2 200.3 446.6 184.1 425.3 163.2C425.3 163.2 427.9 153.4 419.3 147.8C419.3 147.8 423.1 140.1 418.9 134.6C414.6 129 419.3 119.2 415.9 114.1C413 109.8 403.4 99.6999 394.1 95.5999C393.6 92.0999 381.7 0.8999 377.5 0.0998997C373.5 -0.7001 344.3 34.8999 334.5 74.7999C333 73.7999 331.6 73.1999 330.6 73.5999C326.8 74.8999 330.2 85.9999 330.2 85.9999C330.2 85.9999 323.8 69.2999 319.5 71.0999C315.2 72.7999 318.2 85.1999 318.2 85.1999C318.2 85.1999 310.1 72.3999 308.8 72.7999C307.5 73.1999 308.8 85.1999 308.8 85.1999C308.8 85.1999 305.4 80.0999 302.8 81.3999C300.4 82.5999 304 85.2999 304.5 85.5999C304 85.2999 299.7 82.2999 297.7 83.0999C295.6 83.9999 296.4 88.6999 296.4 88.6999C296.4 88.6999 288.3 55.7999 289.1 44.6999C290 33.5999 291.7 11.7999 288.2 10.4999C284.8 9.19989 221.6 52.2999 236.5 133C236.5 133 230.1 133 230.5 138.6C230.9 144.2 236.1 151.4 236.1 151.4C236.1 151.4 218.6 146.3 217.7 150.1C216.8 153.9 226.2 170.6 226.2 170.6C226.2 170.6 218.5 170.2 218.9 174.9C219.3 179.6 233 195.4 233 195.4C233 195.4 227.9 195.8 228.7 199.2C229.6 202.6 240.7 214.1 240.7 214.1C240.7 214.1 230.5 209 231.3 212.4C232.2 215.8 263.7 237.6 263.7 237.6C263.7 237.6 259.4 239.7 261.1 241.9C262.8 244 290.6 259.4 290.6 259.4C290.6 259.4 283.8 261.5 283.8 263.2C283.8 264.9 297.5 271.3 304.3 273.4C341.6 285 376 273 379.9 270.8L377.8 275.5C377.8 275.5 407.3 270 418.4 255V259.7C418.4 259.7 438 240.9 438.9 227.7C438.9 227.7 447.4 214.5 447.4 211C447.5 207.6 443.2 200.3 443.2 200.3Z" fill="#FFE3C5"/>
<path d="M364.3 262.5C306.9 262.5 272.6 240.2 235.1 216.2C243.6 223.5 263.8 237.5 263.8 237.5C263.8 237.5 259.5 239.6 261.2 241.8C262.9 243.9 290.7 259.3 290.7 259.3C290.7 259.3 283.9 261.4 283.9 263.1C283.9 264.8 297.6 271.2 304.4 273.3C341.7 284.9 376.1 272.9 380 270.7L377.9 275.4C377.9 275.4 407.4 269.9 418.5 254.9V259.6C418.5 259.6 429.3 250.5 432.5 243C417.9 251.7 379.2 262.5 364.3 262.5Z" fill="#F4BF98"/>
<path d="M447.5 211C447.5 207.6 443.2 200.3 443.2 200.3C443.2 200.3 446.6 184.1 425.3 163.2C425.3 163.2 427.9 153.4 419.3 147.8C419.3 147.8 423.1 140.1 418.9 134.6C414.6 129 419.3 119.2 415.9 114.1C413 109.8 403.4 99.7 394.1 95.6C393.6 92.1 381.7 0.90001 377.5 0.10001C373.5 -0.69999 344.5 34.6 334.6 74.2C347.6 77.4 363.7 80.1 363.4 85.4C361 127.7 373.6 166.5 381.5 175.4C390 184.9 426.6 183.2 441.5 223.6C443.9 219.5 447.5 213.2 447.5 211Z" fill="#F9A55A"/>
<path d="M325.9 77.0001C323.8 73.4001 321.4 70.1 319.4 70.9C315.1 72.6 318.1 85.0001 318.1 85.0001C318.1 85.0001 310 72.2001 308.7 72.6001C307.4 73.0001 308.7 85.0001 308.7 85.0001C308.7 85.0001 305.3 79.9001 302.7 81.2001C300.3 82.4001 303.9 85.1 304.4 85.4C303.9 85.1 299.6 82.1 297.6 82.9C295.5 83.8 296.3 88.5001 296.3 88.5001C296.3 88.5001 288.2 55.6001 289 44.5C289.9 33.4 291.6 11.6001 288.1 10.3001C284.7 9.00005 221.5 52.1 236.4 132.8C236.4 132.8 230 132.8 230.4 138.4C230.8 144 236 151.2 236 151.2C236 151.2 218.5 146.1 217.6 149.9C216.7 153.7 226.1 170.4 226.1 170.4C226.1 170.4 218.4 170 218.8 174.7C219.2 179.4 232.9 195.2 232.9 195.2C232.9 195.2 227.8 195.6 228.6 199C229 200.5 231.4 203.7 234 206.7C267.9 189.6 340.2 191.9 353.3 169.1C359.9 158.1 343.3 103.1 325.9 77.0001Z" fill="#F9A55A"/>
<path d="M387.3 211.9C382 210.3 365.5 202.5 365.5 200.8C365.5 199.1 403.7 201.4 405.4 204.4C407.1 207.3 392.8 213.6 387.3 211.9Z" fill="#683838"/>
<path d="M316 222.5C307.3 235.4 302.7 250.7 309.4 255.7C314.6 259.6 334.4 253.2 348 234.9L316 222.5Z" fill="#D86D55"/>
<path d="M368.6 239.7C344.8 239.7 302.9 225.9 299.4 203.6C299.3 202.7 299.9 201.8 300.8 201.7C301.7 201.5 302.6 202.2 302.7 203.1C305.9 222.9 347.2 237.6 371.4 236.3C394.6 235.1 405.7 230.1 405.8 230C406.6 229.6 407.6 230 408 230.8C408.4 231.6 408 232.6 407.2 233C406.7 233.2 395.5 238.3 371.6 239.6C370.6 239.6 369.6 239.7 368.6 239.7Z" fill="#683838"/>
<path d="M374 239.2C373.5 239.2 373.1 239 372.7 238.6C372.1 237.9 372.1 236.9 372.8 236.2C383.7 226.5 386.3 209.6 386.3 209.5C386.4 208.6 387.3 207.9 388.2 208.1C389.1 208.2 389.7 209.1 389.6 210C389.5 210.7 386.8 228.2 375 238.8C374.8 239 374.4 239.2 374 239.2Z" fill="#683838"/>
<path d="M331.7 168C323.9 168 313.2 166.9 305.9 161.7C305.1 161.2 305 160.1 305.5 159.4C306 158.6 307.1 158.5 307.8 159C319.1 167.1 340.8 164.1 341 164.1C341.9 164 342.8 164.6 342.9 165.5C343 166.4 342.4 167.3 341.5 167.4C341.1 167.5 337.1 168 331.7 168Z" fill="#683838"/>
<path d="M413.2 171.9C407.9 171.9 396.7 171.4 386.6 167.8C385.7 167.5 385.3 166.5 385.6 165.7C385.9 164.8 386.9 164.4 387.7 164.7C400.6 169.4 415.9 168.6 416.1 168.6C417 168.5 417.8 169.3 417.9 170.2C418 171.1 417.2 171.9 416.3 172C416.1 171.9 415 171.9 413.2 171.9Z" fill="#683838"/>
<path d="M282.2 24.9001C278.8 23.6001 236.5 58.2001 244.6 118.4L287.7 90.2001C279.2 63.7001 285.7 26.2001 282.2 24.9001Z" fill="#E06332"/>
<path d="M389.8 90.6001L359.5 77.8001C359.5 77.8001 369.3 10.3001 376.2 9.10009C378.3 8.70009 389.8 90.6001 389.8 90.6001Z" fill="#E06332"/>
<path d="M287.7 335.7C290.7 337.6 292.5 338.7 292.5 338.7H371C363.2 310.4 337.3 313.8 337.3 313.8C337.3 313.8 331.6 314.3 327.9 315C305.6 319 293.2 325.4 287.7 335.7Z" fill="#FFD0A9"/>
<path d="M392 339.1H467.4C467.4 339.1 464.9 312.7 431.3 315.2C416.8 316.3 386 325.4 386.6 335.1L392 339.1Z" fill="#FFD0A9"/>
<path d="M19.5999 326.8C21.2999 333.5 22.3999 337.4 22.3999 337.4H86.7999C86.4999 322 71.6999 312.1 71.6999 312.1C66.9999 311.2 60.8999 310.1 56.2999 310.1C38.9999 310.1 26.2999 317 19.5999 326.8Z" fill="#FFD0A9"/>
<path d="M98.5999 327.5C100.9 334.3 102.5 338.6 102.5 338.6C102.5 338.6 143.1 338.6 154.6 338.6C155.4 325.1 144 318.2 141.5 316.8C138.7 316.4 135.7 316.2 132.7 316.2C117.9 316.3 105.1 320.9 98.5999 327.5Z" fill="#F4BF98"/>
<path d="M58.0998 76.5C74.7998 98.3 81.1998 103 81.1998 103L45.2998 91.5L58.0998 76.5Z" fill="#FFD0A9"/>
<path d="M54 81.5C59.1 102.6 61.8 106.1 61.8 106.1L34.5 92.4L54 81.5Z" fill="#FFD0A9"/>
<path d="M29.8999 91C28.9999 112.6 36.3999 132.8 36.3999 132.8C26.6999 128.2 18.9999 121.5 13.8999 112.1L29.8999 91Z" fill="#FFD0A9"/>
<path d="M20.0999 109.8C19.1999 131.4 23.8999 152.9 23.8999 152.9C14.1999 148.3 9.19985 140.3 4.09985 130.9L20.0999 109.8Z" fill="#FFD0A9"/>
<path d="M62.7 83.9999C81.7 86.8999 100.4 95.0999 100.4 95.0999C96.7 85.0999 89.7999 78.8999 81.7999 72.3999L62.7 83.9999Z" fill="#FFD0A9"/>
<path d="M24.5999 104.4C37.9999 106.1 48.8999 112.7 48.8999 112.7C50.3999 103.8 47.7999 98.5 44.3999 93L24.5999 104.4Z" fill="#FFD0A9"/>
<path d="M295.5 141.3C318.3 156.5 344.2 143.6 344.2 143.6L295.5 141.3Z" fill="#F49140"/>
<path d="M381.4 145C399.2 164.2 419.5 155.8 419.5 155.8L381.4 145Z" fill="#F49140"/>
<path d="M254.9 91C254.9 67.8 261.3 47 271.3 32.8C258.2 46.2 238.9 75.9 244.6 118.3L256.4 110.6C255.5 104.4 254.9 97.8 254.9 91Z" fill="#CC512B"/>
<path d="M376.8 10.3999C377.7 20.4999 378.3 31.4999 378.3 42.9999C378.3 57.9999 377.4 72.1999 375.8 84.6999L389.8 90.5999C389.8 90.5999 380 21.0999 376.8 10.3999Z" fill="#CC512B"/>
</svg>
