<svg width="23" height="27" viewBox="0 0 23 27" fill="none" xmlns="http://www.w3.org/2000/svg">
<path d="M9.71203 6.02107C10.178 6.48618 10.79 6.71869 11.4021 6.71869C12.0141 6.71869 12.6262 6.48618 13.0921 6.02107L15.0408 4.07601C15.4927 3.62487 15.7416 3.02496 15.7416 2.38682C15.7416 1.74869 15.4927 1.14873 15.0408 0.697636C14.1088 -0.232545 12.5926 -0.232545 11.6607 0.697636L11.4021 0.955718L11.1435 0.697636C10.2115 -0.232545 8.69526 -0.232545 7.76334 0.697636C7.31141 1.14878 7.0625 1.74869 7.0625 2.38682C7.0625 3.02496 7.31141 3.62492 7.76334 4.07601L9.71203 6.02107ZM8.88078 1.81745C9.03867 1.65988 9.24607 1.58104 9.45348 1.58104C9.66088 1.58104 9.86823 1.65983 10.0262 1.81745L10.8434 2.6332C11.1522 2.94138 11.6521 2.94138 11.9608 2.6332L12.7781 1.81745C13.0939 1.50226 13.6076 1.50226 13.9235 1.81745C14.0759 1.96964 14.1599 2.17183 14.1599 2.38682C14.1599 2.60182 14.0759 2.80401 13.9235 2.9562L11.9748 4.90125C11.659 5.21639 11.1453 5.21645 10.8295 4.90125L8.88083 2.9562C8.72838 2.80401 8.64443 2.60182 8.64443 2.38682C8.64443 2.17183 8.72833 1.96964 8.88078 1.81745Z" fill="white"/>
<path d="M21.8674 12.5165C21.2093 11.4109 20.2804 10.355 19.6517 9.79914C18.1163 8.44139 16.769 8.48943 16.1024 8.63893C15.746 8.71888 15.4166 8.864 15.1329 9.06255C14.1004 8.36086 12.8678 8.01709 11.4013 8.01709C9.90161 8.01709 8.64653 8.37658 7.60002 9.11064C7.32748 8.92897 7.01519 8.79545 6.6788 8.72004C6.01229 8.57048 4.66482 8.5225 3.12962 9.88014C2.50081 10.4361 1.57179 11.492 0.913824 12.5977C-0.0728887 14.2558 -0.261625 15.6527 0.352889 16.7495C1.07171 18.0322 2.19564 18.3827 2.97764 18.4784C2.86384 19.0614 2.79586 19.6982 2.79586 20.4404C2.79586 21.8104 3.11559 23.0003 3.74608 23.9772C4.30596 24.8446 5.10468 25.5356 6.12002 26.031C7.90018 26.8996 9.98667 27.0001 11.4013 27.0001C12.8159 27.0001 14.9024 26.8996 16.6825 26.031C17.6979 25.5356 18.4966 24.8446 19.0564 23.9772C19.687 23.0005 20.0067 21.8106 20.0067 20.4404C20.0067 19.6634 19.9322 19.002 19.8085 18.3966C20.5903 18.3 21.711 17.9483 22.4283 16.6684C23.0428 15.5717 22.8541 14.1748 21.8674 12.5165ZM3.78379 15.8884C3.6509 16.2416 3.52249 16.5826 3.40478 16.9259C2.69039 16.8892 2.12882 16.6829 1.73274 15.9761C1.33654 15.269 1.80788 14.1886 2.27305 13.4069C2.84058 12.4532 3.65796 11.5247 4.17729 11.0655C5.18584 10.1736 5.96066 10.1804 6.3326 10.2638C6.34177 10.2659 6.3509 10.2681 6.35997 10.2703C5.3858 11.4547 4.80467 12.9478 4.32257 14.3938C4.13727 14.9494 3.95765 15.4266 3.78379 15.8884ZM12.0325 20.1961C11.816 20.4121 11.5564 20.5629 11.4012 20.5629C11.246 20.5629 10.9865 20.4121 10.77 20.1962C10.5527 19.9794 10.401 19.7169 10.401 19.5578C10.401 19.4215 10.443 19.3809 10.5371 19.3414C10.6953 19.2749 10.9618 19.2453 11.4013 19.2453C11.8407 19.2453 12.1072 19.2749 12.2655 19.3414C12.3596 19.3809 12.4015 19.4215 12.4015 19.5578C12.4015 19.7169 12.2497 19.9794 12.0325 20.1961ZM17.7274 23.1191C17.3263 23.7407 16.7414 24.242 15.9889 24.6091C14.7911 25.1936 13.3607 25.3614 12.1921 25.4044V21.9778C12.6165 21.7991 12.9506 21.5147 13.1495 21.3163C13.461 21.0057 13.9834 20.3642 13.9834 19.5578C13.9834 18.7996 13.5701 18.1734 12.8778 17.8826C12.5066 17.7267 12.0789 17.6632 11.4013 17.6632C10.7236 17.6632 10.2958 17.7268 9.9247 17.8826C9.23246 18.1733 8.81918 18.7996 8.81918 19.5578C8.81918 20.3641 9.34157 21.0057 9.65302 21.3163C9.85183 21.5147 10.1859 21.7991 10.6104 21.9778V25.4044C9.44182 25.3613 8.0114 25.1935 6.81359 24.6091C6.06117 24.2419 5.47624 23.7406 5.07504 23.119C4.6123 22.4022 4.37768 21.5009 4.37768 20.4404C4.37768 18.8013 4.74956 17.8132 5.26436 16.4455C5.44328 15.9702 5.62833 15.4786 5.82324 14.8943C6.28139 13.52 6.82877 12.1103 7.72415 11.109C8.64532 10.0789 9.81375 9.59912 11.4013 9.59912C12.9888 9.59912 14.1572 10.0789 15.0784 11.109C15.9739 12.1104 16.5212 13.5201 16.9793 14.8943C17.1732 15.4758 17.3582 15.9674 17.5382 16.4456C18.0529 17.8132 18.4248 18.8013 18.4248 20.4404C18.4249 21.5011 18.1902 22.4023 17.7274 23.1191ZM21.0484 15.8949C20.651 16.604 20.0873 16.8093 19.3697 16.8451C19.2594 16.5282 19.1404 16.2121 19.0175 15.8856C18.8438 15.4241 18.6643 14.9468 18.4799 14.3939C17.9882 12.9187 17.3934 11.3947 16.3832 10.1991C16.4047 10.1931 16.4264 10.1876 16.4485 10.1827C16.8207 10.0994 17.5953 10.0925 18.6039 10.9844C19.1231 11.4435 19.9405 12.372 20.5081 13.3257C20.9733 14.1075 21.4446 15.1878 21.0484 15.8949Z" fill="white"/>
<path d="M9.27724 13.4756C8.84044 13.4756 8.48633 13.8297 8.48633 14.2667V15.4569C8.48633 15.8938 8.84044 16.2479 9.27724 16.2479C9.71404 16.2479 10.0681 15.8938 10.0681 15.4569V14.2667C10.0681 13.8297 9.71404 13.4756 9.27724 13.4756Z" fill="white"/>
<path d="M13.5038 13.4756C13.067 13.4756 12.7129 13.8297 12.7129 14.2667V15.4569C12.7129 15.8938 13.067 16.2479 13.5038 16.2479C13.9406 16.2479 14.2947 15.8938 14.2947 15.4569V14.2667C14.2948 13.8297 13.9407 13.4756 13.5038 13.4756Z" fill="white"/>
</svg>
