<svg width="87" height="89" viewBox="0 0 87 89" fill="none" xmlns="http://www.w3.org/2000/svg">
<path d="M86.8629 21.2996V19.9672L85.7858 19.4675L43.3678 0L27.4562 7.42646L26.5847 7.82816L18.6729 11.512L18.3106 11.6786L1.0771 19.7223L0 20.2219V21.5544L0.137085 67.3966L42.5649 88.4709L43.6224 89L44.6799 88.4709L86.9902 67.1517L86.8629 21.2996ZM43.3776 2.33179L83.3575 20.6922L68.8754 27.9913L49.38 18.3114L29.8845 8.63155L43.3776 2.33179ZM27.4268 9.77785L66.5156 29.1866L67.7004 29.7744L67.8277 29.8332V30.8913L67.8571 40.3067L61.512 43.5007L61.4826 34.0853V32.8998V32.7627L60.4349 32.2434L21.1013 12.7171L27.4268 9.77785ZM2.25211 66.074L2.12482 22.6027L22.2763 32.6157L42.4278 42.6287L42.4572 53.1511L42.4865 63.6736L42.5551 86.1097L2.25211 66.074ZM43.4853 40.7868L3.50546 20.9273L18.6533 13.8634L58.0653 33.4387L44.6701 40.1891L43.4853 40.7868ZM44.6799 86.0902L44.6114 63.6638L44.5526 42.6287L44.7485 42.5307L44.9443 42.4327L52.1608 38.7979L59.3774 35.163L59.4068 46.9494L69.9819 41.6195L69.9427 29.8332L84.7479 22.3676L84.8752 65.8388L44.6799 86.0902Z" fill="white"/>
</svg>
