<svg width="89" height="91" viewBox="0 0 89 91" fill="none" xmlns="http://www.w3.org/2000/svg">
<path d="M43.4433 54.346L43.4132 43.5871L22.7885 33.3491L2.17371 23.1211L2.30393 67.5592L43.5434 88.0352L43.4733 65.0949L43.4433 54.346Z" fill="#C0916B"/>
<path d="M71.5506 30.5035L71.5806 42.5447L60.7624 47.9943L60.7223 35.9531L53.3499 39.6697L45.9674 43.3862L45.7771 43.4864L45.5768 43.5865L45.6369 65.0944L45.707 88.0247L86.8263 67.3183L86.6961 22.8701L71.5506 30.5035Z" fill="#C0916B"/>
<path d="M44.3748 2.38379L30.5715 8.82511L50.5151 18.7225L70.4588 28.6199L85.2737 21.1568L44.3748 2.38379Z" fill="#C0916B"/>
<path d="M88.8598 21.7783V20.4159L87.7579 19.905L44.3648 0L28.0873 7.59335L27.1958 8.00407L19.1022 11.7707L18.7316 11.941L1.10186 20.1655L0 20.6764V22.0387L0.140236 68.9112L43.5434 90.459L44.6252 91L45.707 90.459L88.99 68.6607L88.8598 21.7783ZM44.3748 2.38419L85.2737 21.1572L70.4588 28.6203L50.5151 18.7229L30.5715 8.82552L44.3748 2.38419ZM28.0573 9.99758L68.0447 29.8425L69.2567 30.4435L69.3869 30.5036V31.5855L69.417 41.2125L62.9261 44.4782L62.896 34.8513V33.6391V33.4989L61.8242 32.968L21.5864 13.0029L28.0573 9.99758ZM43.5434 88.0348L2.30388 67.5588L2.17366 23.1106L22.7884 33.3486L43.4031 43.5866L43.4332 54.3456L43.4633 65.1045L43.5434 88.0348ZM44.485 41.7033L3.58604 21.3976L19.0822 14.1749L59.4001 34.1901L45.697 41.0923L44.485 41.7033ZM86.8263 67.3184L45.707 88.0248L45.6369 65.0844L45.5768 43.5866L45.7772 43.4865L45.9775 43.3863L53.3599 39.6698L60.7424 35.9532L60.7724 48.0044L71.5907 42.5548L71.5506 30.5036L86.6961 22.8702L86.8263 67.3184Z" fill="black"/>
<path d="M59.4001 34.19L19.0722 14.1748L3.58606 21.3975L44.485 41.7032L45.697 41.0921L59.4001 34.19Z" fill="#C0916B"/>
<path d="M61.8142 32.9785L62.886 33.5094V33.6496L62.896 34.8618L62.9161 44.4887L69.407 41.2129L69.387 31.596L69.377 30.5041L69.2467 30.444L68.0347 29.8429L28.0573 9.99805L21.5864 13.0033L61.8142 32.9785Z" fill="white"/>
</svg>
